/* XPM */
static char *hi16[]={
"16 16 8 1",
". c None",
"# c #000000",
"b c #808080",
"f c #c00000",
"d c #c0c0c0",
"c c #c0c0ff",
"e c #ffc0c0",
"a c #ffffff",
".##############.",
"#aaaaaabaaaaaab#",
"#acaaaabaaaaacb#",
"#aaaaaabaaaaaab#",
"#adddd###addddb#",
"#acaaaabaa##acb#",
"#aaaaaded####db#",
"#aaaaadf#bddb#a#",
"#aaaaaa#d#aabd##",
"#acaaa#bba#aabb#",
"#aaaaa#daaa#aad#",
"#adddd#daaaaaad#",
"#acaaa#bbaaaabb#",
"#aaaaaa#dbaabdb#",
"#bbbbbbb#bddbbb#",
".##############."};
