/* XPM */
static char *task-complete[] = {
/* columns rows colors chars-per-pixel */
"15 15 7 1",
"  c black",
". c #004000",
"X c #008000",
"o c #00C000",
"O c green",
"+ c #C6C6C6",
"@ c None",
/* pixels */
"@@@@@@@@@@@@@@@",
"@@@@@@@@@@@@Oo@",
"@@        OooX@",
"@@ @@@@@@ooXX.@",
"@@ @@@@@ooXX..@",
"@@ @@@@ooXX. @@",
"Oo @@@ooX..  @@",
"oXo@@ooX..@  @@",
".XXoooX..@@  @@",
"@.XXooX.@@@  @@",
"@@.XoX..@@@  @@",
"@@ XXX.      @@",
"@@@....      @@",
"@@@@@@@@@@@@@@@",
"@@@@@@@@@@@@@@@"
};
