/* XPM */
static char * watch_5_xpm[] = {
"15 15 7 1",
" 	c None",
".	c #000000",
"+	c #4A4A4A",
"@	c #ACACAC",
"#	c #E9E9E9",
"$	c #FFFFFF",
"%	c #989898",
"       .       ",
"    +@#$#@+    ",
"   %$$$$$$$%   ",
"  %$$$$$$$$$%  ",
" +$$$$$$$$$$$+ ",
" @$$$$$$$$$$$@ ",
" #$$$$$$$$$$$# ",
".$$$$$$.$$$$$$.",
" #$$$$.$$$$$$# ",
" @$$$.$$$$$$$@ ",
" +$$.$$$$$$$$+ ",
"  %.$$$$$$$$%  ",
"   %$$$$$$$%   ",
"    +@#$#@+    ",
"       .       "};
