/* XPM */
/* Drawn  by Stephan Kanthak for the K Desktop Environment */
/* See http://www.kde.org */
static char*karm[]={
"32 32 14 1",
"e c #ffffff",
"# c #000000",
"a c #008000",
"b c #004000",
"c c #c0c0c0",
"d c #808080",
"f c #c0c0ff",
"g c #ffffc0",
"h c #a0a0a4",
"i c #ffc0c0",
"j c #c00000",
"k c #ff0000",
"l c #585858",
". c None",
".##############################.",
"#aaaaaaaaaaaaaabbaaaaaaaaaaaaaa#",
"#acccccccccccccdcccccccccccccdb#",
"#aceeeeeeeeeeeedceeeeeeeeeeeedb#",
"#aceffeeeeeeeeedceeeeeeeeeffedb#",
"#aceffeeeeeeeeedceeeeeeeeeffedb#",
"#aceeeeeeeeeeeedceeeeeeeeeeeedb#",
"#aceeeeeeeeeeeedceeeeeeeeeeeedb#",
"#aceeeeeeeeeeggggggeeeeeeeeeedb#",
"#acecccccccce######eccccccccedb#",
"#aceeeeeeeeeeeedceeeeeeeeeffedb#",
"#aceffeeeeeeeeedceeed###deffedb#",
"#aceffeeeeeeeecdceee#dhe#eeecdb#",
"#aceeeeeeeeeec#i#cc#######cc#d##",
"#aceeeeeeeeeedjki##ddddddd##dhe#",
"#aceeeeeeeeeec#j#dddcccccddd#e##",
"#acecccccccceec#ddcceedeeccdd#b#",
"#aceeeeeeeeeee#ddcedeeceedecdd##",
"#aceffeeeeeeec#dceeecedekeeecd##",
"#aceffeeeeeeedldcdeeeedekeedcdd#",
"#aceeeeeeeeee#dceeceeedkeeceecd#",
"#aceeeeeeeeee#dceeeeeedkeeeeecd#",
"#aceeeeeeeeee#dcdceeeekeeeecdcd#",
"#acecccccccce#dceeeeeekeeeeeecd#",
"#aceeeeeeeeee#dceeceeeeeeeceecd#",
"#aceffeeeeeeedldcdeeeeeeeeedcdd#",
"#aceffeeeeeeec#dceeeceeeceeecd##",
"#aceeeeeeeeeee#ddcedeeceedecdd##",
"#aceeeeeeeeeeec#ddcceedeeccdd#b#",
"#acddddddddddddd#dddcccccddd#db#",
"#abbbbbbbbbbbbbbb##ddddddd##bbb#",
".##############################."};

