/* XPM */
/* Drawn for the K Desktop Environment */
/* See http://www.kde.org */
static char*karm[]={
"16 16 9 1",
"a c #ffffff",
"# c #000000",
"d c #c0c0c0",
"b c #808080",
"c c #c0c0ff",
"e c #ffc0c0",
"f c #c00000",
"g c #ff0000",
". c None",
".##############.",
"#aaaaaabaaaaaab#",
"#acaaaabaaaaacb#",
"#aaaaaabaaaaaab#",
"#adddd###addddb#",
"#acaaaabaa##acb#",
"#aaaaaded####db#",
"#aaaaadf#bddb#a#",
"#aaaaaa#dbaabd##",
"#acaaa#bbaaaabb#",
"#aaaaa#daaagaad#",
"#adddd#daaaaaad#",
"#acaaa#bbaaaabb#",
"#aaaaaa#dbaabdb#",
"#bbbbbbb#bddbbb#",
".##############."};

