<?xml version="1.0" encoding="UTF-8" standalone="no"?>
<svg
   xmlns:dc="http://purl.org/dc/elements/1.1/"
   xmlns:cc="http://creativecommons.org/ns#"
   xmlns:rdf="http://www.w3.org/1999/02/22-rdf-syntax-ns#"
   xmlns:svg="http://www.w3.org/2000/svg"
   xmlns="http://www.w3.org/2000/svg"
   xmlns:sodipodi="http://sodipodi.sourceforge.net/DTD/sodipodi-0.dtd"
   xmlns:inkscape="http://www.inkscape.org/namespaces/inkscape"
   height="22"
   viewBox="0 0 22 22"
   width="22"
   version="1.1"
   id="svg39"
   sodipodi:docname="22-apps-ktimetracker.svg"
   inkscape:version="0.92.5 (2060ec1f9f, 2020-04-08)"
   inkscape:export-filename="/home/ksp/Dokumente/Privat/Eigene_Projekte/ktimetracker/icons/breeze/22-apps-ktimetracker23.png"
   inkscape:export-xdpi="96"
   inkscape:export-ydpi="96">
  <metadata
     id="metadata45">
    <rdf:RDF>
      <cc:Work
         rdf:about="">
        <dc:format>image/svg+xml</dc:format>
        <dc:type
           rdf:resource="http://purl.org/dc/dcmitype/StillImage" />
      </cc:Work>
    </rdf:RDF>
  </metadata>
  <defs
     id="defs43">
    <radialGradient
       id="a-3"
       cx="11"
       cy="12"
       gradientUnits="userSpaceOnUse"
       r="6">
      <stop
         offset="0"
         stop-color="#3dd425"
         stop-opacity=".954751"
         id="stop2-6" />
      <stop
         offset="1"
         stop-color="#59f07c"
         id="stop4-7" />
    </radialGradient>
    <linearGradient
       id="b-5"
       gradientUnits="userSpaceOnUse"
       x1="8.999999"
       x2="16.052055"
       y1="11"
       y2="18.052055">
      <stop
         offset="0"
         id="stop7-3" />
      <stop
         offset="1"
         stop-opacity="0"
         id="stop9-5" />
    </linearGradient>
    <linearGradient
       id="b-5-9"
       gradientUnits="userSpaceOnUse"
       x1="8.999999"
       x2="16.052055"
       y1="11"
       y2="18.052055">
      <stop
         offset="0"
         id="stop7-3-1" />
      <stop
         offset="1"
         stop-opacity="0"
         id="stop9-5-2" />
    </linearGradient>
  </defs>
  <sodipodi:namedview
     pagecolor="#ffffff"
     bordercolor="#666666"
     borderopacity="1"
     objecttolerance="10"
     gridtolerance="10"
     guidetolerance="10"
     inkscape:pageopacity="0"
     inkscape:pageshadow="2"
     inkscape:window-width="1850"
     inkscape:window-height="1080"
     id="namedview41"
     showgrid="false"
     inkscape:zoom="42.909091"
     inkscape:cx="11.279696"
     inkscape:cy="10.002364"
     inkscape:window-x="70"
     inkscape:window-y="0"
     inkscape:window-maximized="1"
     inkscape:current-layer="layer2" />
  <radialGradient
     id="a"
     cx="11"
     cy="12"
     gradientUnits="userSpaceOnUse"
     r="6">
    <stop
       offset="0"
       stop-color="#3dd425"
       stop-opacity=".954751"
       id="stop2" />
    <stop
       offset="1"
       stop-color="#59f07c"
       id="stop4" />
  </radialGradient>
  <linearGradient
     id="b"
     gradientUnits="userSpaceOnUse"
     x1="8.999999"
     x2="16.052055"
     y1="11"
     y2="18.052055">
    <stop
       offset="0"
       id="stop7" />
    <stop
       offset="1"
       stop-opacity="0"
       id="stop9" />
  </linearGradient>
  <linearGradient
     id="c"
     gradientTransform="matrix(2.4295641 2.4295641 -2.4295641 2.4295641 1.364305 -972.83339)"
     gradientUnits="userSpaceOnUse"
     x1="204.86578"
     x2="204.86578"
     y1="197.19539"
     y2="198.84178">
    <stop
       offset="0"
       stop-color="#9b9ea2"
       id="stop12" />
    <stop
       offset="1"
       stop-color="#1a1b1e"
       id="stop14" />
  </linearGradient>
  <g
     inkscape:groupmode="layer"
     id="layer3"
     inkscape:label="Hintergrund"
     style="opacity:1">
    <g
       style=""
       stroke-width="3"
       id="g23">
      <path
         d="m11 6h4l2-2 2.5 2.5-1.5 1.63v3.87h-7z"
         fill="url(#c)"
         id="path17"
         style="" />
      <path
         d="m7 2v2h4 4v-2zm4 2a8 8 0 0 0 -8 8 8 8 0 0 0 8 8 8 8 0 0 0 8-8 8 8 0 0 0 -8-8z"
         fill="#686b6f"
         id="path19"
         style="" />
      <circle
         cx="11"
         cy="12"
         fill="#eff8ff"
         r="6"
         id="circle21"
         style="" />
    </g>
  </g>
  <g
     inkscape:groupmode="layer"
     id="layer2"
     inkscape:label="Zifferblatt"
     style="display:inline;opacity:1">
    <g
       id="g198"
       inkscape:transform-center-x="-0.99157831"
       inkscape:transform-center-y="0.51202579">
      <path
         d="m 11,6 a 6,6 0 0 0 -6,6 6,6 0 0 0 6,6 6,6 0 0 0 6,-6 6,6 0 0 0 -6,-6 z m 0,1 a 5,5 0 0 1 5,5 5,5 0 0 1 -5,5 5,5 0 0 1 -5,-5 5,5 0 0 1 5,-5 z"
         id="path27"
         inkscape:connector-curvature="0"
         style="opacity:0.15;stroke-width:3" />
      <path
         d="m 11,6 v 6 h 6 A 6,6 0 0 0 11,6 Z"
         id="path29"
         style="fill:url(#a-3);stroke-width:3"
         inkscape:connector-curvature="0" />
      <path
         d="m 11,11 h 6 v 2 h -6 z"
         id="path31"
         inkscape:connector-curvature="0"
         style="fill:#00223e;stroke-width:3" />
      <path
         id="path25"
         d="M 11,11 9.5859375,13.414062 15,19 h 4 v -6 l -2,-2 z"
         style="display:inline;opacity:0.2;fill:url(#b-5-9)"
         inkscape:connector-curvature="0" />
      <path
         d="m 12.414214,10.585786 c 0.781048,0.781049 0.781048,2.047379 0,2.828428 C 11.633165,14.195262 10.367049,14.195049 9.586,13.414 8.8049511,12.632951 8.8047379,11.366835 9.5857865,10.585786 c 0.7810485,-0.7810481 2.0473785,-0.7810478 2.8284275,0 z"
         id="path33"
         inkscape:connector-curvature="0"
         style="fill:#686b6f;stroke-width:3" />
      <circle
         cx="11"
         cy="12"
         r="1"
         id="circle35"
         style="fill:#9b9ea2;stroke-width:3" />
    </g>
  </g>
</svg>
