/* XPM */
static char *task-incomplete[] = {
/* columns rows colors chars-per-pixel */
"15 15 3 1",
"  c black",
". c #C6C6C6",
"X c None",
/* pixels */
"XXXXXXXXXXXXXXX",
"XXXXXXXXXXXXXXX",
"XX          XXX",
"XX XXXXXXXX  XX",
"XX XXXXXXXX  XX",
"XX XXXXXXXX  XX",
"XX XXXXXXXX  XX",
"XX XXXXXXXX  XX",
"XX XXXXXXXX  XX",
"XX XXXXXXXX  XX",
"XX XXXXXXXX  XX",
"XX           XX",
"XXX          XX",
"XXXXXXXXXXXXXXX",
"XXXXXXXXXXXXXXX"
};
