/* XPM */
static char *magick[] = {
/* columns rows colors chars-per-pixel */
"22 22 10 1",
"  c Black",
". c #008080",
"X c Red",
"o c Magenta",
"O c #808000",
"+ c Yellow",
"@ c #808080",
"# c #c0c0c0",
"$ c Gray100",
"% c None",
/* pixels */
"%%%%%%%%%%%%%%%%%%%%%%",
"%%%%%%%%%####%%%%%%%%%",
"%%%%%%###@..@######%%%",
"%%%%%#@@######@@#ooo%%",
"%%%%#@$#$$..$$#OOooo#%",
"%%%#@##$$$$$$#OOOOoo#%",
"%%#@$#$$$$$$#OO+OOO#%%",
"%%#@#$$$$$$#OOO++OO#%%",
"%%##$$$$$$#OO+++OO##%%",
"%#@#$$$$$#OOO++OO$#@#%",
"%#@#$$$$#OO+++OO$$#@#%",
"%#@#$$$#OOO++OO$$$#@#%",
"%#@#$$#OO+++OO$$$$#@#%",
"%%##$#OOO++OO.$$$$##%%",
"%%#@#OO+++OO$$.$$#@#%%",
"%%#@OOO++OO$$$$.#$@#%%",
"%%%OO+++OO$$$$$##@#%%%",
"%%OO+++OO$$$$$#$@#%%%%",
"%% O++OO######@@#%%%%%",
"% OOOOO##@@@@###%%%%%%",
"% OO O%%%####%%%%%%%%%",
"%   %%%%%%%%%%%%%%%%%%"
};
